<svg id="Layer_1" data-name="Layer 1" xmlns="http://www.w3.org/2000/svg" viewBox="0 0 848.54 309.49"><defs><style>.cls-1{fill:#2565af;}.cls-2{fill:#7c7c7b;}</style></defs><title>KyVe_logo</title><path class="cls-1" d="M455,489.06A90.37,90.37,0,1,1,452.78,417h88.39c-20.55-41.34-67-44.09-67-44.09-7.94-37.47-44.53-85.53-108.46-85.53s-97,61.28-97,61.28c-123.89,16.75-94.79,123-94.79,123s15.43,104,190.9,104c129.9,0,169.19-57,180.83-86.63H455Z" transform="translate(-171.01 -266.2)"/><path class="cls-2" d="M300.11,455.45a70.23,70.23,0,0,0,26.26,54.82,68.3,68.3,0,0,0,21.79,12.26,70.15,70.15,0,0,0,28.94,3.57c20-1.71,36.33-10.49,49.16-25.81a91.79,91.79,0,0,0,6.75-9.85,2.29,2.29,0,0,1,2.21-1.31c5.32,0,2.7,0,8,0,3.18,0,4.27-1.08,4.28-4.22q0-3.46,0-6.91a2.15,2.15,0,0,1,.18-0.49c0.68,0,1.43-.12,2.18-0.12,9.4,0,26.73,0,36.13,0a5.64,5.64,0,0,0,4.6-2c3.25-3.63,6.66-7.1,10-10.68a4.19,4.19,0,0,1,3.62-1.69l0.37,0.2c3.57,3.63,11.78,11.59,12.07,11.95a1.2,1.2,0,0,0,.28.25,6.5,6.5,0,0,0,4.65,2.07c3.23,0.17,5.13-1.43,7.06-3.56,3.17-3.5,6.46-6.9,9.77-10.26a3.22,3.22,0,0,1,4.32.28c3.62,3.77,7.23,7.55,10.75,11.4a5.84,5.84,0,0,0,4.79,2.1c4.08-.1,8.16-0.07,12.23,0a5.15,5.15,0,0,0,4.16-1.82c3.44-3.75,7-7.35,10.42-11.16a3.83,3.83,0,0,1,5.83,0c2.63,2.94,5.39,5.75,8.09,8.62,2.05,2.18,3.7,2.22,5.81,0,2.67-2.78,5.44-5.49,7.92-8.43a3.91,3.91,0,0,1,6.2,0c3.54,3.93,7.21,7.73,10.87,11.56,1.59,1.67,3.53,1.72,5.1.07q8.49-8.92,16.88-17.93c1.51-1.62,1.44-3.36-.12-5-7.74-8.27-15.52-16.51-23.22-24.81a5.21,5.21,0,0,0-4.28-1.53q-92.74,0-185.47.06a3.44,3.44,0,0,1-3.67-2.34,70.94,70.94,0,0,0-42.89-36.78,71.17,71.17,0,0,0-29.25-2.52,69.83,69.83,0,0,0-12.81,2.76l-0.66.2-1,.35A70.39,70.39,0,0,0,300.11,455.45Zm148.7-21.83h168.7a5.27,5.27,0,0,1,1.58,0,1.6,1.6,0,0,1,1,.9c0.57,2.75.07,3.33-2.69,3.33H451.94C448.18,437.91,448,437.74,448.81,433.62ZM322.16,455.43c0.05-10.67,9-19.27,19.13-19,10.24-.33,19.25,8.37,19.26,19.08A19.2,19.2,0,1,1,322.16,455.43Z" transform="translate(-171.01 -266.2)"/><path class="cls-2" d="M761.47,343.94L748,397.66c-1.57,6.27-3.36,14.55-4.92,20.37h-0.67c-1.34-5.82-3.58-13.88-5.37-20.37l-16.34-53.71H682.92L723,444a12.37,12.37,0,0,1,1.57,5.6,8.86,8.86,0,0,1-1.79,4.92,39.06,39.06,0,0,1-14.1,13.65A42.93,42.93,0,0,1,693.89,474a20,20,0,0,1-3.2.24,40.22,40.22,0,0,1-19.39-4.64,42.92,42.92,0,0,1-12.93-9.21l-20.3,21.74c5.57,6.52,15.49,14.79,30.5,19.41,14,4.32,33.42,1.2,33.42,1.2h0a62.72,62.72,0,0,0,32-14.86c12.31-11,22.83-28.42,38.49-71.84L798,343.94H761.47Z" transform="translate(-171.01 -266.2)"/><path class="cls-1" d="M837,417L788.68,266.2h37.37L844.41,330c5.15,17.9,9.85,35.14,13.43,53.94h0.67c3.8-18.13,8.5-36,13.65-53.26l19.25-64.46h36.26L876.86,417H837Z" transform="translate(-171.01 -266.2)"/><path class="cls-2" d="M947.93,373.18c1.12,14.1,15,20.81,30.88,20.81a96.44,96.44,0,0,0,30.21-4.47l4.48,23c-11.19,4.48-24.84,6.71-39.61,6.71-37.15,0-58.41-21.48-58.41-55.73,0-27.75,17.23-58.41,55.28-58.41,35.36,0,48.79,27.53,48.79,54.61a80.61,80.61,0,0,1-1.12,13.43h-70.5ZM988,349.9c0-8.28-3.58-22.16-19.25-22.16-14.32,0-20.14,13-21,22.16H988Z" transform="translate(-171.01 -266.2)"/><path class="cls-1" d="M566,268h33.36v65.84H600c3.31-5.74,6.85-11,10.16-16.35L644,268h41.31L636,331.36l51.92,85.5H648.6l-36.45-64.29-12.82,15.69v48.61H566V268Z" transform="translate(-171.01 -266.2)"/></svg>